<svg width="32" height="32" viewBox="0 0 32 32" fill="none" xmlns="http://www.w3.org/2000/svg">
<path d="M27.5 6.5C27.5 5.9475 27.0525 5.5 26.5 5.5H5.5C4.9475 5.5 4.5 5.9475 4.5 6.5V10.5H27.5V6.5Z" fill="black"/>
<path d="M14 9C14.5523 9 15 8.55228 15 8C15 7.44772 14.5523 7 14 7C13.4477 7 13 7.44772 13 8C13 8.55228 13.4477 9 14 9Z" fill="#72C472"/>
<path d="M10.5 9C11.0523 9 11.5 8.55228 11.5 8C11.5 7.44772 11.0523 7 10.5 7C9.94772 7 9.5 7.44772 9.5 8C9.5 8.55228 9.94772 9 10.5 9Z" fill="#EFD358"/>
<path d="M7 9C7.55228 9 8 8.55228 8 8C8 7.44772 7.55228 7 7 7C6.44772 7 6 7.44772 6 8C6 8.55228 6.44772 9 7 9Z" fill="#E86C60"/>
<path d="M11.5 10.5V26.5H26.5C27.0525 26.5 27.5 26.0525 27.5 25.5V10.5H11.5Z" fill="#99BCFF"/>
<path d="M4.5 10.5V25.5C4.5 26.0525 4.9475 26.5 5.5 26.5H11.5V10.5H4.5Z" fill="#3378FF"/>
<path d="M25 17.5H14C13.724 17.5 13.5 17.276 13.5 17V13C13.5 12.724 13.724 12.5 14 12.5H25C25.276 12.5 25.5 12.724 25.5 13V17C25.5 17.276 25.276 17.5 25 17.5Z" fill="#0057FF"/>
<path d="M25 21H14C13.724 21 13.5 20.776 13.5 20.5C13.5 20.224 13.724 20 14 20H25C25.276 20 25.5 20.224 25.5 20.5C25.5 20.776 25.276 21 25 21Z" fill="white"/>
<path d="M25 23.5H14C13.724 23.5 13.5 23.276 13.5 23C13.5 22.724 13.724 22.5 14 22.5H25C25.276 22.5 25.5 22.724 25.5 23C25.5 23.276 25.276 23.5 25 23.5Z" fill="white"/>
</svg>
