<svg width="32" height="32" viewBox="0 0 32 32" fill="none" xmlns="http://www.w3.org/2000/svg">
<path d="M14.25 24.75C20.049 24.75 24.75 20.049 24.75 14.25C24.75 8.45101 20.049 3.75 14.25 3.75C8.45101 3.75 3.75 8.45101 3.75 14.25C3.75 20.049 8.45101 24.75 14.25 24.75Z" fill="#EBF2FF"/>
<path d="M14.25 25.9167C7.81708 25.9167 2.58331 20.6829 2.58331 14.25C2.58331 7.8171 7.81708 2.58333 14.25 2.58333C20.6829 2.58333 25.9166 7.8171 25.9166 14.25C25.9166 20.6829 20.6829 25.9167 14.25 25.9167ZM14.25 4.91667C9.10366 4.91667 4.91665 9.10367 4.91665 14.25C4.91665 19.3963 9.10366 23.5833 14.25 23.5833C19.3963 23.5833 23.5833 19.3963 23.5833 14.25C23.5833 9.10367 19.3963 4.91667 14.25 4.91667Z" fill="black"/>
<path d="M10.1666 18.9167C10.0174 18.9167 9.86814 18.8597 9.75421 18.7458C9.52635 18.5179 9.52635 18.1488 9.75421 17.9209L13.8375 13.8376C14.0654 13.6097 14.4345 13.6097 14.6624 13.8376C14.8903 14.0654 14.8903 14.4346 14.6624 14.6624L10.5791 18.7458C10.4651 18.8597 10.3159 18.9167 10.1666 18.9167Z" fill="#0057FF"/>
<path d="M14.25 14.8333C13.9275 14.8333 13.6666 14.5721 13.6666 14.25V8.41667C13.6666 8.09452 13.9275 7.83333 14.25 7.83333C14.5724 7.83333 14.8333 8.09452 14.8333 8.41667V14.25C14.8333 14.5721 14.5724 14.8333 14.25 14.8333Z" fill="#364563"/>
<path d="M20.0833 14.8333H14.25C13.9275 14.8333 13.6666 14.5721 13.6666 14.25C13.6666 13.9279 13.9275 13.6667 14.25 13.6667H20.0833C20.4057 13.6667 20.6666 13.9279 20.6666 14.25C20.6666 14.5721 20.4057 14.8333 20.0833 14.8333Z" fill="#364563"/>
<path d="M14.25 16C15.2165 16 16 15.2165 16 14.25C16 13.2835 15.2165 12.5 14.25 12.5C13.2835 12.5 12.5 13.2835 12.5 14.25C12.5 15.2165 13.2835 16 14.25 16Z" fill="#364563"/>
<path opacity="0.1" d="M25.9167 14.25C25.9167 12.8901 25.6707 11.5895 25.241 10.3748C24.536 10.2379 23.7675 10.1667 23 10.1667C20.3909 10.1667 17.75 10.9682 17.75 12.5V14.25C17.75 14.4585 17.8027 14.6521 17.8938 14.8333C17.8027 15.0146 17.75 15.2082 17.75 15.4167V17.1667C17.75 17.3751 17.8027 17.5688 17.8938 17.75C17.8027 17.9312 17.75 18.1249 17.75 18.3333V20.0833C17.75 20.2918 17.8027 20.4854 17.8938 20.6667C17.8027 20.8479 17.75 21.0415 17.75 21.25V23C17.75 23.2085 17.8027 23.4021 17.8938 23.5833C17.8027 23.7646 17.75 23.9582 17.75 24.1667V25.3333H17.8734C22.5365 23.8047 25.9167 19.4175 25.9167 14.25Z" fill="black"/>
<path d="M28.8333 24.75H19.5C19.1778 24.75 18.9166 25.0112 18.9166 25.3333V27.0833C18.9166 28.6152 21.5576 29.4167 24.1666 29.4167C26.7757 29.4167 29.4166 28.6152 29.4166 27.0833V25.3333C29.4166 25.0112 29.1554 24.75 28.8333 24.75Z" fill="#0057FF"/>
<path d="M24.1666 23C21.5576 23 18.9166 23.8015 18.9166 25.3333C18.9166 26.8652 21.5576 27.6667 24.1666 27.6667C26.7757 27.6667 29.4166 26.8652 29.4166 25.3333C29.4166 23.8015 26.7757 23 24.1666 23Z" fill="#99BCFF"/>
<path d="M28.8333 21.8333H19.5C19.1778 21.8333 18.9166 22.0945 18.9166 22.4167V24.1667C18.9166 25.6985 21.5576 26.5 24.1666 26.5C26.7757 26.5 29.4166 25.6985 29.4166 24.1667V22.4167C29.4166 22.0945 29.1554 21.8333 28.8333 21.8333Z" fill="#0057FF"/>
<path d="M24.1666 20.0833C21.5576 20.0833 18.9166 20.8848 18.9166 22.4167C18.9166 23.9485 21.5576 24.75 24.1666 24.75C26.7757 24.75 29.4166 23.9485 29.4166 22.4167C29.4166 20.8848 26.7757 20.0833 24.1666 20.0833Z" fill="#99BCFF"/>
<path d="M28.8333 18.9167H19.5C19.1778 18.9167 18.9166 19.1779 18.9166 19.5V21.25C18.9166 22.7818 21.5576 23.5833 24.1666 23.5833C26.7757 23.5833 29.4166 22.7818 29.4166 21.25V19.5C29.4166 19.1779 29.1554 18.9167 28.8333 18.9167Z" fill="#0057FF"/>
<path d="M24.1666 17.1667C21.5576 17.1667 18.9166 17.9682 18.9166 19.5C18.9166 21.0318 21.5576 21.8333 24.1666 21.8333C26.7757 21.8333 29.4166 21.0318 29.4166 19.5C29.4166 17.9682 26.7757 17.1667 24.1666 17.1667Z" fill="#99BCFF"/>
<path d="M28.8333 16H19.5C19.1778 16 18.9166 16.2612 18.9166 16.5833V18.3333C18.9166 19.8652 21.5576 20.6667 24.1666 20.6667C26.7757 20.6667 29.4166 19.8652 29.4166 18.3333V16.5833C29.4166 16.2612 29.1554 16 28.8333 16Z" fill="#0057FF"/>
<path d="M24.1666 14.25C21.5576 14.25 18.9166 15.0515 18.9166 16.5833C18.9166 18.1152 21.5576 18.9167 24.1666 18.9167C26.7757 18.9167 29.4166 18.1152 29.4166 16.5833C29.4166 15.0515 26.7757 14.25 24.1666 14.25Z" fill="#99BCFF"/>
<path d="M28.8333 13.0833H19.5C19.1778 13.0833 18.9166 13.3445 18.9166 13.6667V15.4167C18.9166 16.9485 21.5576 17.75 24.1666 17.75C26.7757 17.75 29.4166 16.9485 29.4166 15.4167V13.6667C29.4166 13.3445 29.1554 13.0833 28.8333 13.0833Z" fill="#0057FF"/>
<path d="M24.1666 11.3333C21.5576 11.3333 18.9166 12.1348 18.9166 13.6667C18.9166 15.1985 21.5576 16 24.1666 16C26.7757 16 29.4166 15.1985 29.4166 13.6667C29.4166 12.1348 26.7757 11.3333 24.1666 11.3333Z" fill="#99BCFF"/>
</svg>
