<svg width="32" height="32" viewBox="0 0 32 32" fill="none" xmlns="http://www.w3.org/2000/svg">
<path d="M27.9939 7.93367C27.8329 7.82458 27.6282 7.80242 27.4503 7.87475L15.7836 12.5414C15.5619 12.6307 15.4167 12.8447 15.4167 13.0833V28.25C15.4167 28.4437 15.5129 28.6245 15.6728 28.733C15.7708 28.7989 15.8851 28.8333 16 28.8333C16.0735 28.8333 16.147 28.8199 16.2164 28.7919L27.8831 24.1252C28.1048 24.036 28.25 23.8219 28.25 23.5833V8.41667C28.25 8.223 28.1538 8.04217 27.9939 7.93367Z" fill="#0057FF"/>
<path d="M16 12.4551L4.54975 7.87475C4.37125 7.80417 4.16708 7.82517 4.00608 7.93367C3.84625 8.04217 3.75 8.223 3.75 8.41667V23.5833C3.75 23.8219 3.89525 24.036 4.11692 24.1253L15.7836 28.7919C15.853 28.8199 15.9265 28.8333 16 28.8333V12.4551Z" fill="black"/>
<path d="M27.8831 7.87475L16.2164 3.20808C16.0776 3.15208 15.9224 3.15208 15.7836 3.20808L4.11692 7.87475C3.89525 7.964 3.75 8.17808 3.75 8.41667C3.75 8.65525 3.89525 8.86933 4.11692 8.95858L15.7836 13.6253C15.853 13.6533 15.9265 13.6667 16 13.6667C16.0735 13.6667 16.147 13.6533 16.2164 13.6253L27.8831 8.95858C28.1047 8.86933 28.25 8.65525 28.25 8.41667C28.25 8.17808 28.1047 7.964 27.8831 7.87475Z" fill="#99BCFF"/>
</svg>
