<svg width="32" height="32" viewBox="0 0 32 32" fill="none" xmlns="http://www.w3.org/2000/svg">
<path d="M18.3246 27.6445C18.2517 27.6445 18.1788 27.6311 18.1076 27.6025C17.8422 27.4963 17.6934 27.2134 17.7553 26.934L21.3888 10.6578C21.4297 10.4747 21.5563 10.3224 21.7289 10.2483C21.9016 10.1748 22.0993 10.1894 22.2598 10.2851L26.801 13.0279C26.9334 13.1084 27.0285 13.2373 27.0658 13.3878C27.1032 13.5377 27.0787 13.6964 26.9988 13.8288L18.8233 27.3622C18.716 27.5418 18.5241 27.6445 18.3246 27.6445Z" fill="#99BCFF"/>
<path d="M18.3403 26.318C18.317 26.318 18.2937 26.3168 18.2698 26.3139C17.9775 26.2783 17.757 26.031 17.7564 25.7364L17.6975 5.75608C17.6969 5.57641 17.7792 5.40608 17.9209 5.29525C18.0621 5.18441 18.247 5.14475 18.4208 5.18791L23.14 6.35691C23.2905 6.39366 23.4194 6.48991 23.4993 6.62175C23.5793 6.75475 23.6032 6.91341 23.5658 7.06333L18.9056 25.8747C18.8408 26.1383 18.6046 26.318 18.3403 26.318Z" fill="#669AFF"/>
<path d="M18.9167 3.16667C18.9167 2.84408 18.6553 2.58333 18.3333 2.58333H7.83333C7.51133 2.58333 7.25 2.84408 7.25 3.16667V21.25H18.9167V3.16667Z" fill="#0057FF"/>
<path d="M7.83333 29.4167H18.3333C18.6553 29.4167 18.9167 29.1559 18.9167 28.8333V21.25H7.25V28.8333C7.25 29.1559 7.51133 29.4167 7.83333 29.4167Z" fill="black"/>
<path d="M13.0833 27.0833C14.0498 27.0833 14.8333 26.2998 14.8333 25.3333C14.8333 24.3668 14.0498 23.5833 13.0833 23.5833C12.1168 23.5833 11.3333 24.3668 11.3333 25.3333C11.3333 26.2998 12.1168 27.0833 13.0833 27.0833Z" fill="#99BCFF"/>
</svg>
