<svg width="360"
     height="360"
     viewBox="0 0 360 360"
     fill="none"
     xmlns="http://www.w3.org/2000/svg">
  <style>
      .Bg {
        fill: #fff;
      }

      .Mark {
        fill: #000;
      }

      @media (prefers-color-scheme: dark) {
        .Bg {
          fill: #000;
        }

        .Mark {
          fill: #fff;
        }
      }
  </style>
  <path d="M120.938 61.875H70.3125C65.6526 61.875 61.875 65.6526 61.875 70.3125V289.688C61.875 294.347 65.6526 298.125 70.3125 298.125H120.938C125.597 298.125 129.375 294.347 129.375 289.688V70.3125C129.375 65.6526 125.597 61.875 120.938 61.875Z" fill="#0057FF"/>
  <path class="Mark" d="M289.688 142.031H239.062C234.403 142.031 230.625 145.809 230.625 150.469V289.688C230.625 294.347 234.403 298.125 239.062 298.125H289.688C294.347 298.125 298.125 294.347 298.125 289.688V150.469C298.125 145.809 294.347 142.031 289.688 142.031Z" fill="black"/>
  <path class="Mark" d="M289.688 61.875H154.688C150.028 61.875 146.25 65.6526 146.25 70.3125V116.719C146.25 121.379 150.028 125.156 154.688 125.156H289.688C294.347 125.156 298.125 121.379 298.125 116.719V70.3125C298.125 65.6526 294.347 61.875 289.688 61.875Z" fill="black"/>
</svg>

