<svg width="25" height="25" viewBox="0 0 25 25" fill="none" xmlns="http://www.w3.org/2000/svg">
<style>
.dynamic {
  fill: #000;
  filter: invert(100%);
}
</style>
<path d="M7.25 2h-4.5a.75.75 0 00-.75.75v19.5c0 .414.336.75.75.75h4.5a.75.75 0 00.75-.75V2.75A.75.75 0 007.25 2z" fill="#0057FF"/><path d="M22.25 9.125h-4.5a.75.75 0 00-.75.75V22.25c0 .414.336.75.75.75h4.5a.75.75 0 00.75-.75V9.875a.75.75 0 00-.75-.75zM22.25 2h-12a.75.75 0 00-.75.75v4.125c0 .414.336.75.75.75h12a.75.75 0 00.75-.75V2.75a.75.75 0 00-.75-.75z" class="dynamic" /></svg>
